<svg width="800" height="400" viewBox="0 0 800 400" xmlns="http://www.w3.org/2000/svg"><mask id="satori_om-id"><rect x="0" y="0" width="800" height="400" fill="#fff"/></mask><rect x="0" y="0" width="800" height="400" fill="#fff"/><clipPath id="satori_cp-id-0"><rect x="383" y="90" width="34" height="38"/></clipPath><mask id="satori_om-id-0"><rect x="383" y="90" width="34" height="38" fill="#fff"/></mask><image x="383" y="90" width="34" height="38" href="data:image/svg+xml;utf8,%3Csvg  fill=%22none%22 xmlns=%22http://www.w3.org/2000/svg%22 width=%2234%22 height=%2238%22 viewBox=%220 0 34 38%22%3E%3Cpath d=%22M0.25 33C0.25 33.4142 0.585786 33.75 1 33.75C1.41421 33.75 1.75 33.4142 1.75 33H0.25ZM2.17157 2.17157L1.64124 1.64124L1.64124 1.64124L2.17157 2.17157ZM32.6485 1.35147L32.1181 1.88175L32.1182 1.88186L32.6485 1.35147ZM32.25 28.428C32.25 28.8422 32.5858 29.178 33 29.178C33.4142 29.178 33.75 28.8422 33.75 28.428H32.25ZM5 28.25C4.58579 28.25 4.25 28.5858 4.25 29C4.25 29.4142 4.58579 29.75 5 29.75V28.25ZM33 29.75C33.4142 29.75 33.75 29.4142 33.75 29C33.75 28.5858 33.4142 28.25 33 28.25V29.75ZM5 36.25C4.58579 36.25 4.25 36.5858 4.25 37C4.25 37.4142 4.58579 37.75 5 37.75V36.25ZM33 37.75C33.4142 37.75 33.75 37.4142 33.75 37C33.75 36.5858 33.4142 36.25 33 36.25V37.75ZM1.75 33V5H0.25V33H1.75ZM1.75 5C1.75 4.13804 2.09241 3.3114 2.7019 2.7019L1.64124 1.64124C0.750449 2.53204 0.25 3.74022 0.25 5H1.75ZM2.7019 2.7019C3.3114 2.09241 4.13802 1.75 5 1.75V0.25C3.74018 0.25 2.53204 0.750451 1.64124 1.64124L2.7019 2.7019ZM5 1.75H31.8V0.25H5V1.75ZM31.8 1.75C31.9194 1.75 32.0338 1.79742 32.1181 1.88175L33.1789 0.821187C32.8132 0.455444 32.3172 0.25 31.8 0.25V1.75ZM32.1182 1.88186C32.2026 1.96621 32.25 2.08062 32.25 2.2H33.75C33.75 1.68286 33.5446 1.18683 33.1788 0.821081L32.1182 1.88186ZM32.25 2.2V28.428H33.75V2.2H32.25ZM5 29.75H33V28.25H5V29.75ZM5 37.75H33V36.25H5V37.75Z%22 fill=%22%23757575%22%3E%3C/path%3E%3Cpath d=%22M5 37C3.9391 37 2.92172 36.5786 2.17157 35.8284C1.42143 35.0783 1 34.0609 1 33C1 31.9391 1.42143 30.9217 2.17157 30.1716C2.92172 29.4214 3.9391 29 5 29%22 stroke=%22%23757575%22 stroke-width=%221.5%22 stroke-linecap=%22round%22 stroke-linejoin=%22round%22%3E%3C/path%3E%3Cpath d=%22M11 9H23%22 stroke=%22%23757575%22 stroke-width=%221.5%22 stroke-linecap=%22round%22%3E%3C/path%3E%3C/svg%3E" preserveAspectRatio="none" clip-path="url(#satori_cp-id-0)" mask="url(#satori_om-id-0)"/><mask id="satori_om-id-0-0"><rect x="383" y="90" width="0" height="38" fill="#fff"/></mask><mask id="satori_om-id-0-1"><rect x="383" y="90" width="0" height="38" fill="#fff"/></mask><mask id="satori_om-id-0-2"><rect x="383" y="90" width="0" height="38" fill="#fff"/></mask><mask id="satori_om-id-1"><rect x="323" y="168" width="155" height="39" fill="#fff"/></mask><path fill="#757575" d="M335.1 199L330.3 199L323.6 175.7L329.0 175.7L332.8 191.9L333.0 191.9L337.3 175.7L341.9 175.7L346.1 191.9L346.3 191.9L350.2 175.7L355.5 175.7L348.9 199L344.1 199L339.7 183.8L339.5 183.8L335.1 199ZM364.1 199.3L364.1 199.3Q361.4 199.3 359.5 198.2Q357.6 197.1 356.5 195.1Q355.5 193.0 355.5 190.3L355.5 190.3Q355.5 187.6 356.5 185.6Q357.6 183.6 359.5 182.4Q361.4 181.3 364.1 181.3L364.1 181.3Q366.7 181.3 368.7 182.4Q370.6 183.6 371.6 185.6Q372.7 187.6 372.7 190.3L372.7 190.3Q372.7 193.0 371.6 195.1Q370.6 197.1 368.7 198.2Q366.7 199.3 364.1 199.3ZM364.1 195.6L364.1 195.6Q365.3 195.6 366.1 194.9Q366.9 194.2 367.3 193.0Q367.8 191.8 367.8 190.3L367.8 190.3Q367.8 188.8 367.3 187.6Q366.9 186.4 366.1 185.7Q365.3 185.0 364.1 185.0L364.1 185.0Q362.9 185.0 362.1 185.7Q361.2 186.4 360.8 187.6Q360.4 188.8 360.4 190.3L360.4 190.3Q360.4 191.8 360.8 193.0Q361.2 194.2 362.1 194.9Q362.9 195.6 364.1 195.6ZM380.7 199L375.8 199L375.8 181.5L380.5 181.5L380.5 184.6L380.7 184.6Q381.2 183.0 382.3 182.1Q383.4 181.3 384.9 181.3L384.9 181.3Q385.3 181.3 385.7 181.3Q386.1 181.4 386.4 181.5L386.4 181.5L386.4 185.8Q386.1 185.7 385.5 185.6Q384.9 185.5 384.4 185.5L384.4 185.5Q383.3 185.5 382.5 186.0Q381.6 186.4 381.2 187.2Q380.7 188.1 380.7 189.1L380.7 189.1L380.7 199ZM394.5 199.3L394.5 199.3Q392.5 199.3 390.9 198.3Q389.3 197.2 388.4 195.2Q387.4 193.2 387.4 190.3L387.4 190.3Q387.4 187.3 388.4 185.3Q389.4 183.3 391.0 182.3Q392.6 181.3 394.5 181.3L394.5 181.3Q396.0 181.3 397.0 181.8Q397.9 182.3 398.6 183.0Q399.2 183.8 399.5 184.5L399.5 184.5L399.6 184.5L399.6 175.7L404.5 175.7L404.5 199L399.7 199L399.7 196.2L399.5 196.2Q399.1 196.9 398.5 197.6Q397.9 198.4 396.9 198.8Q395.9 199.3 394.5 199.3ZM396.1 195.4L396.1 195.4Q397.2 195.4 398.0 194.8Q398.9 194.1 399.3 193.0Q399.7 191.8 399.7 190.3L399.7 190.3Q399.7 188.7 399.3 187.6Q398.9 186.4 398.0 185.8Q397.2 185.2 396.1 185.2L396.1 185.2Q394.9 185.2 394.0 185.8Q393.2 186.5 392.8 187.6Q392.4 188.8 392.4 190.3L392.4 190.3Q392.4 191.8 392.8 193.0Q393.2 194.1 394.1 194.8Q394.9 195.4 396.1 195.4ZM413.3 199L408.4 199L408.4 181.5L413.0 181.5L413.0 184.6L413.2 184.6Q413.8 183.1 415.1 182.2Q416.3 181.3 418.1 181.3L418.1 181.3Q419.9 181.3 421.2 182.2Q422.4 183.1 422.8 184.6L422.8 184.6L423.0 184.6Q423.6 183.1 425.0 182.2Q426.4 181.3 428.3 181.3L428.3 181.3Q430.7 181.3 432.3 182.9Q433.8 184.4 433.8 187.3L433.8 187.3L433.8 199L429.0 199L429.0 188.2Q429.0 186.8 428.2 186.0Q427.4 185.3 426.2 185.3L426.2 185.3Q424.9 185.3 424.2 186.1Q423.5 187.0 423.5 188.3L423.5 188.3L423.5 199L418.8 199L418.8 188.1Q418.8 186.8 418.0 186.1Q417.3 185.3 416.1 185.3L416.1 185.3Q415.3 185.3 414.7 185.7Q414.0 186.1 413.6 186.8Q413.3 187.6 413.3 188.5L413.3 188.5L413.3 199ZM442.6 199.3L442.6 199.3Q440.9 199.3 439.6 198.7Q438.3 198.2 437.5 197.0Q436.8 195.9 436.8 194.1L436.8 194.1Q436.8 192.7 437.3 191.7Q437.9 190.7 438.8 190.1Q439.7 189.5 440.9 189.2Q442.0 188.9 443.3 188.8L443.3 188.8Q444.9 188.6 445.8 188.4Q446.7 188.3 447.1 188.0Q447.6 187.7 447.6 187.2L447.6 187.2L447.6 187.1Q447.6 186.0 446.9 185.4Q446.2 184.9 445.0 184.9L445.0 184.9Q443.7 184.9 442.9 185.4Q442.1 186 441.9 186.9L441.9 186.9L437.4 186.5Q437.7 184.9 438.7 183.7Q439.7 182.6 441.3 181.9Q442.9 181.3 445.0 181.3L445.0 181.3Q446.5 181.3 447.8 181.7Q449.1 182 450.2 182.7Q451.2 183.4 451.8 184.6Q452.4 185.7 452.4 187.2L452.4 187.2L452.4 199L447.8 199L447.8 196.6L447.7 196.6Q447.3 197.4 446.6 198.0Q445.9 198.6 444.9 199.0Q443.9 199.3 442.6 199.3ZM444.0 196.0L444.0 196.0Q445.0 196.0 445.9 195.6Q446.7 195.1 447.1 194.4Q447.6 193.7 447.6 192.8L447.6 192.8L447.6 190.9Q447.4 191.1 447.0 191.2Q446.6 191.3 446.1 191.4Q445.6 191.5 445.1 191.6Q444.6 191.6 444.2 191.7L444.2 191.7Q443.4 191.8 442.7 192.1Q442.1 192.4 441.8 192.8Q441.4 193.3 441.4 194.0L441.4 194.0Q441.4 195.0 442.1 195.5Q442.9 196.0 444.0 196.0ZM461.0 205.5L456.2 205.5L456.2 181.5L460.9 181.5L460.9 184.5L461.2 184.5Q461.5 183.8 462.1 183.0Q462.7 182.3 463.7 181.8Q464.7 181.3 466.1 181.3L466.1 181.3Q468.0 181.3 469.6 182.3Q471.3 183.3 472.2 185.3Q473.2 187.3 473.2 190.3L473.2 190.3Q473.2 193.2 472.3 195.2Q471.3 197.2 469.7 198.3Q468.1 199.3 466.1 199.3L466.1 199.3Q464.7 199.3 463.7 198.8Q462.7 198.4 462.1 197.6Q461.5 196.9 461.2 196.2L461.2 196.2L461.0 196.2L461.0 205.5ZM460.9 190.3L460.9 190.3Q460.9 191.8 461.3 193.0Q461.8 194.1 462.6 194.8Q463.4 195.4 464.6 195.4L464.6 195.4Q465.8 195.4 466.6 194.8Q467.4 194.1 467.8 193.0Q468.2 191.8 468.2 190.3L468.2 190.3Q468.2 188.8 467.8 187.6Q467.4 186.5 466.6 185.8Q465.8 185.2 464.6 185.2L464.6 185.2Q463.4 185.2 462.6 185.8Q461.8 186.4 461.3 187.6Q460.9 188.7 460.9 190.3Z "/><mask id="satori_om-id-2"><rect x="156" y="239" width="488" height="39" fill="#fff"/></mask><path fill="#757575" d="M175.4 253.4L170.6 253.4Q170.5 252.0 169.5 251.3Q168.4 250.5 166.7 250.5L166.7 250.5Q165.5 250.5 164.6 250.9Q163.8 251.2 163.4 251.8Q162.9 252.4 162.9 253.1L162.9 253.1Q162.9 253.8 163.2 254.2Q163.5 254.7 164 255.0Q164.5 255.4 165.2 255.6Q165.9 255.8 166.6 256.0L166.6 256.0L168.7 256.5Q170.2 256.9 171.5 257.4Q172.8 258.0 173.7 258.8Q174.6 259.6 175.2 260.8Q175.7 261.9 175.7 263.4L175.7 263.4Q175.7 265.5 174.6 267.1Q173.5 268.6 171.5 269.5Q169.5 270.3 166.6 270.3L166.6 270.3Q163.8 270.3 161.7 269.5Q159.7 268.6 158.5 266.9Q157.3 265.2 157.3 262.7L157.3 262.7L162.0 262.7Q162.1 263.9 162.7 264.6Q163.3 265.4 164.3 265.8Q165.3 266.2 166.6 266.2L166.6 266.2Q167.8 266.2 168.8 265.8Q169.7 265.5 170.2 264.8Q170.7 264.2 170.7 263.3L170.7 263.3Q170.7 262.6 170.3 262.0Q169.8 261.5 168.9 261.1Q168.0 260.7 166.8 260.4L166.8 260.4L164.2 259.8Q161.3 259.1 159.6 257.6Q157.9 256.0 157.9 253.5L157.9 253.5Q157.9 251.3 159.0 249.8Q160.2 248.2 162.2 247.3Q164.2 246.4 166.7 246.4L166.7 246.4Q169.3 246.4 171.2 247.3Q173.2 248.2 174.3 249.8Q175.3 251.3 175.4 253.4L175.4 253.4ZM186.8 270.3L186.8 270.3Q184.1 270.3 182.2 269.2Q180.3 268.1 179.2 266.1Q178.2 264.1 178.2 261.4L178.2 261.4Q178.2 258.7 179.2 256.6Q180.3 254.6 182.2 253.5Q184.1 252.3 186.6 252.3L186.6 252.3Q188.4 252.3 189.9 252.9Q191.4 253.4 192.5 254.5Q193.6 255.6 194.2 257.3Q194.9 259.0 194.9 261.2L194.9 261.2L194.9 262.5L180.1 262.5L180.1 259.5L190.3 259.5Q190.3 258.5 189.8 257.7Q189.4 256.9 188.6 256.4Q187.8 255.9 186.7 255.9L186.7 255.9Q185.6 255.9 184.8 256.4Q183.9 256.9 183.5 257.8Q183.0 258.6 183.0 259.7L183.0 259.7L183.0 262.5Q183.0 263.8 183.4 264.8Q183.9 265.7 184.8 266.2Q185.7 266.7 186.9 266.7L186.9 266.7Q187.7 266.7 188.4 266.5Q189.1 266.3 189.5 265.8Q190.0 265.4 190.3 264.7L190.3 264.7L194.8 265Q194.4 266.6 193.4 267.8Q192.3 269.0 190.7 269.7Q189 270.3 186.8 270.3ZM203.0 270.3L203.0 270.3Q201.3 270.3 200.0 269.7Q198.7 269.2 197.9 268.0Q197.2 266.9 197.2 265.1L197.2 265.1Q197.2 263.7 197.7 262.7Q198.3 261.7 199.2 261.1Q200.1 260.5 201.3 260.2Q202.5 259.9 203.8 259.8L203.8 259.8Q205.3 259.6 206.2 259.4Q207.1 259.3 207.6 259.0Q208.0 258.7 208.0 258.2L208.0 258.2L208.0 258.1Q208.0 257.0 207.3 256.4Q206.6 255.9 205.4 255.9L205.4 255.9Q204.1 255.9 203.3 256.4Q202.5 257 202.3 257.9L202.3 257.9L197.8 257.5Q198.1 255.9 199.1 254.7Q200.1 253.6 201.7 252.9Q203.3 252.3 205.4 252.3L205.4 252.3Q206.9 252.3 208.2 252.7Q209.5 253 210.6 253.7Q211.6 254.4 212.2 255.6Q212.8 256.7 212.8 258.2L212.8 258.2L212.8 270L208.2 270L208.2 267.6L208.1 267.6Q207.7 268.4 207.0 269.0Q206.3 269.6 205.3 270.0Q204.3 270.3 203.0 270.3ZM204.4 267.0L204.4 267.0Q205.4 267.0 206.3 266.6Q207.1 266.1 207.5 265.4Q208.0 264.7 208.0 263.8L208.0 263.8L208.0 261.9Q207.8 262.1 207.4 262.2Q207 262.3 206.5 262.4Q206.0 262.5 205.5 262.6Q205.0 262.6 204.6 262.7L204.6 262.7Q203.8 262.8 203.2 263.1Q202.5 263.4 202.2 263.8Q201.8 264.3 201.8 265.0L201.8 265.0Q201.8 266.0 202.5 266.5Q203.3 267.0 204.4 267.0ZM221.4 270L216.6 270L216.6 252.5L221.3 252.5L221.3 255.6L221.5 255.6Q221.9 254.0 223.1 253.1Q224.2 252.3 225.6 252.3L225.6 252.3Q226.0 252.3 226.4 252.3Q226.9 252.4 227.2 252.5L227.2 252.5L227.2 256.8Q226.8 256.7 226.2 256.6Q225.6 256.5 225.1 256.5L225.1 256.5Q224.1 256.5 223.2 257.0Q222.4 257.4 221.9 258.2Q221.4 259.1 221.4 260.1L221.4 260.1L221.4 270ZM236.7 270.3L236.7 270.3Q234.0 270.3 232.1 269.2Q230.2 268.1 229.2 266.0Q228.1 264.0 228.1 261.3L228.1 261.3Q228.1 258.7 229.2 256.6Q230.2 254.6 232.1 253.5Q234.1 252.3 236.7 252.3L236.7 252.3Q239.0 252.3 240.7 253.1Q242.4 254.0 243.4 255.5Q244.4 257.0 244.5 259L244.5 259L240.0 259Q239.8 257.7 238.9 256.9Q238.1 256.1 236.8 256.1L236.8 256.1Q235.7 256.1 234.8 256.7Q234.0 257.3 233.5 258.5Q233.1 259.6 233.1 261.3L233.1 261.3Q233.1 262.9 233.5 264.1Q234.0 265.3 234.8 265.9Q235.7 266.5 236.8 266.5L236.8 266.5Q237.6 266.5 238.3 266.2Q238.9 265.8 239.4 265.2Q239.8 264.5 240.0 263.6L240.0 263.6L244.5 263.6Q244.4 265.6 243.4 267.1Q242.5 268.6 240.8 269.5Q239.1 270.3 236.7 270.3ZM252.5 259.9L252.5 259.9L252.5 270L247.6 270L247.6 246.7L252.3 246.7L252.3 255.6L252.5 255.6Q253.1 254.1 254.5 253.2Q255.8 252.3 257.8 252.3L257.8 252.3Q259.6 252.3 260.9 253.1Q262.3 253.9 263.1 255.4Q263.8 256.8 263.8 258.9L263.8 258.9L263.8 270L259.0 270L259.0 259.8Q259.0 258.1 258.1 257.2Q257.3 256.3 255.8 256.3L255.8 256.3Q254.9 256.3 254.1 256.8Q253.3 257.2 252.9 258.0Q252.5 258.8 252.5 259.9ZM268.9 266.8L272.9 266.8L272.8 268.1Q272.6 269.6 272.2 271.1Q271.8 272.6 271.3 273.8Q270.9 275.0 270.6 275.7L270.6 275.7L267.5 275.7Q267.6 275.0 267.9 273.8Q268.2 272.6 268.5 271.1Q268.8 269.6 268.8 268.1L268.8 268.1L268.9 266.8Z M300.5 270L285.6 270L285.6 246.7L290.6 246.7L290.6 265.9L300.5 265.9L300.5 270ZM311.7 270.3L311.7 270.3Q309.0 270.3 307.0 269.2Q305.1 268.1 304.0 266.1Q303.0 264.1 303.0 261.4L303.0 261.4Q303.0 258.7 304.0 256.6Q305.1 254.6 307.0 253.5Q308.9 252.3 311.5 252.3L311.5 252.3Q313.2 252.3 314.7 252.9Q316.2 253.4 317.3 254.5Q318.4 255.6 319.0 257.3Q319.7 259.0 319.7 261.2L319.7 261.2L319.7 262.5L304.9 262.5L304.9 259.5L315.1 259.5Q315.1 258.5 314.7 257.7Q314.2 256.9 313.4 256.4Q312.6 255.9 311.5 255.9L311.5 255.9Q310.4 255.9 309.6 256.4Q308.8 256.9 308.3 257.8Q307.8 258.6 307.8 259.7L307.8 259.7L307.8 262.5Q307.8 263.8 308.3 264.8Q308.8 265.7 309.6 266.2Q310.5 266.7 311.7 266.7L311.7 266.7Q312.5 266.7 313.2 266.5Q313.9 266.3 314.4 265.8Q314.8 265.4 315.1 264.7L315.1 264.7L319.6 265Q319.2 266.6 318.2 267.8Q317.1 269.0 315.5 269.7Q313.8 270.3 311.7 270.3ZM327.8 270.3L327.8 270.3Q326.1 270.3 324.8 269.7Q323.5 269.2 322.8 268.0Q322.0 266.9 322.0 265.1L322.0 265.1Q322.0 263.7 322.5 262.7Q323.1 261.7 324.0 261.1Q324.9 260.5 326.1 260.2Q327.3 259.9 328.6 259.8L328.6 259.8Q330.1 259.6 331.0 259.4Q332.0 259.3 332.4 259.0Q332.8 258.7 332.8 258.2L332.8 258.2L332.8 258.1Q332.8 257.0 332.1 256.4Q331.4 255.9 330.2 255.9L330.2 255.9Q328.9 255.9 328.1 256.4Q327.4 257 327.1 257.9L327.1 257.9L322.6 257.5Q323.0 255.9 324.0 254.7Q325.0 253.6 326.6 252.9Q328.1 252.3 330.2 252.3L330.2 252.3Q331.7 252.3 333.0 252.7Q334.4 253 335.4 253.7Q336.4 254.4 337.0 255.6Q337.6 256.7 337.6 258.2L337.6 258.2L337.6 270L333.0 270L333.0 267.6L332.9 267.6Q332.5 268.4 331.8 269.0Q331.1 269.6 330.1 270.0Q329.1 270.3 327.8 270.3ZM329.2 267.0L329.2 267.0Q330.3 267.0 331.1 266.6Q331.9 266.1 332.4 265.4Q332.8 264.7 332.8 263.8L332.8 263.8L332.8 261.9Q332.6 262.1 332.2 262.2Q331.8 262.3 331.3 262.4Q330.8 262.5 330.4 262.6Q329.9 262.6 329.5 262.7L329.5 262.7Q328.6 262.8 328.0 263.1Q327.3 263.4 327.0 263.8Q326.6 264.3 326.6 265.0L326.6 265.0Q326.6 266.0 327.4 266.5Q328.1 267.0 329.2 267.0ZM346.2 270L341.4 270L341.4 252.5L346.1 252.5L346.1 255.6L346.3 255.6Q346.8 254.0 347.9 253.1Q349.0 252.3 350.5 252.3L350.5 252.3Q350.8 252.3 351.3 252.3Q351.7 252.4 352.0 252.5L352.0 252.5L352.0 256.8Q351.6 256.7 351.0 256.6Q350.4 256.5 349.9 256.5L349.9 256.5Q348.9 256.5 348.0 257.0Q347.2 257.4 346.7 258.2Q346.2 259.1 346.2 260.1L346.2 260.1L346.2 270ZM359.3 259.9L359.3 259.9L359.3 270L354.5 270L354.5 252.5L359.1 252.5L359.1 255.6L359.3 255.6Q359.9 254.1 361.2 253.2Q362.6 252.3 364.5 252.3L364.5 252.3Q366.4 252.3 367.7 253.1Q369.1 253.9 369.8 255.4Q370.6 256.9 370.6 258.9L370.6 258.9L370.6 270L365.7 270L365.7 259.8Q365.7 258.1 364.9 257.2Q364.1 256.3 362.6 256.3L362.6 256.3Q361.6 256.3 360.9 256.8Q360.2 257.2 359.7 258.0Q359.3 258.8 359.3 259.9Z M386.8 270.3L386.8 270.3Q385.1 270.3 383.8 269.7Q382.5 269.2 381.7 268.0Q381.0 266.9 381.0 265.1L381.0 265.1Q381.0 263.7 381.5 262.7Q382.0 261.7 383.0 261.1Q383.9 260.5 385.1 260.2Q386.2 259.9 387.5 259.8L387.5 259.8Q389.1 259.6 390.0 259.4Q390.9 259.3 391.3 259.0Q391.8 258.7 391.8 258.2L391.8 258.2L391.8 258.1Q391.8 257.0 391.1 256.4Q390.4 255.9 389.2 255.9L389.2 255.9Q387.9 255.9 387.1 256.4Q386.3 257 386.1 257.9L386.1 257.9L381.6 257.5Q381.9 255.9 382.9 254.7Q383.9 253.6 385.5 252.9Q387.1 252.3 389.2 252.3L389.2 252.3Q390.6 252.3 392.0 252.7Q393.3 253 394.4 253.7Q395.4 254.4 396 255.6Q396.6 256.7 396.6 258.2L396.6 258.2L396.6 270L392.0 270L392.0 267.6L391.9 267.6Q391.5 268.4 390.8 269.0Q390.0 269.6 389.1 270.0Q388.1 270.3 386.8 270.3ZM388.2 267.0L388.2 267.0Q389.2 267.0 390.0 266.6Q390.9 266.1 391.3 265.4Q391.8 264.7 391.8 263.8L391.8 263.8L391.8 261.9Q391.6 262.1 391.2 262.2Q390.8 262.3 390.3 262.4Q389.8 262.5 389.3 262.6Q388.8 262.6 388.4 262.7L388.4 262.7Q387.6 262.8 386.9 263.1Q386.3 263.4 386.0 263.8Q385.6 264.3 385.6 265.0L385.6 265.0Q385.6 266.0 386.3 266.5Q387.0 267.0 388.2 267.0ZM405.2 259.9L405.2 259.9L405.2 270L400.4 270L400.4 252.5L405.0 252.5L405.0 255.6L405.2 255.6Q405.8 254.1 407.1 253.2Q408.5 252.3 410.4 252.3L410.4 252.3Q412.3 252.3 413.6 253.1Q415.0 253.9 415.7 255.4Q416.5 256.9 416.5 258.9L416.5 258.9L416.5 270L411.6 270L411.6 259.8Q411.6 258.1 410.8 257.2Q410.0 256.3 408.5 256.3L408.5 256.3Q407.5 256.3 406.8 256.8Q406.0 257.2 405.6 258.0Q405.2 258.8 405.2 259.9ZM426.7 270.3L426.7 270.3Q424.7 270.3 423.1 269.3Q421.5 268.2 420.6 266.2Q419.6 264.2 419.6 261.3L419.6 261.3Q419.6 258.3 420.6 256.3Q421.5 254.3 423.2 253.3Q424.8 252.3 426.7 252.3L426.7 252.3Q428.1 252.3 429.1 252.8Q430.1 253.3 430.7 254.0Q431.3 254.8 431.6 255.5L431.6 255.5L431.8 255.5L431.8 246.7L436.6 246.7L436.6 270L431.9 270L431.9 267.2L431.6 267.2Q431.3 267.9 430.7 268.6Q430.1 269.4 429.1 269.8Q428.1 270.3 426.7 270.3ZM428.2 266.4L428.2 266.4Q429.4 266.4 430.2 265.8Q431.0 265.1 431.5 264.0Q431.9 262.8 431.9 261.3L431.9 261.3Q431.9 259.7 431.5 258.6Q431.0 257.4 430.2 256.8Q429.4 256.2 428.2 256.2L428.2 256.2Q427.0 256.2 426.2 256.8Q425.4 257.5 425.0 258.6Q424.6 259.8 424.6 261.3L424.6 261.3Q424.6 262.8 425.0 264.0Q425.4 265.1 426.2 265.8Q427.0 266.4 428.2 266.4Z M465.4 253.4L460.7 253.4Q460.6 252.0 459.6 251.3Q458.5 250.5 456.8 250.5L456.8 250.5Q455.5 250.5 454.7 250.9Q453.9 251.2 453.4 251.8Q453.0 252.4 453.0 253.1L453.0 253.1Q453.0 253.8 453.3 254.2Q453.6 254.7 454.1 255.0Q454.6 255.4 455.3 255.6Q455.9 255.8 456.7 256.0L456.7 256.0L458.8 256.5Q460.3 256.9 461.6 257.4Q462.9 258.0 463.8 258.8Q464.7 259.6 465.2 260.8Q465.8 261.9 465.8 263.4L465.8 263.4Q465.8 265.5 464.7 267.1Q463.6 268.6 461.6 269.5Q459.6 270.3 456.7 270.3L456.7 270.3Q453.9 270.3 451.8 269.5Q449.7 268.6 448.6 266.9Q447.4 265.2 447.4 262.7L447.4 262.7L452.1 262.7Q452.2 263.9 452.8 264.6Q453.4 265.4 454.4 265.8Q455.4 266.2 456.7 266.2L456.7 266.2Q457.9 266.2 458.8 265.8Q459.8 265.5 460.3 264.8Q460.8 264.2 460.8 263.3L460.8 263.3Q460.8 262.6 460.3 262.0Q459.9 261.5 459.0 261.1Q458.1 260.7 456.8 260.4L456.8 260.4L454.3 259.8Q451.4 259.1 449.7 257.6Q448.0 256.0 448.0 253.5L448.0 253.5Q448.0 251.3 449.1 249.8Q450.2 248.2 452.2 247.3Q454.2 246.4 456.8 246.4L456.8 246.4Q459.4 246.4 461.3 247.3Q463.3 248.2 464.3 249.8Q465.4 251.3 465.4 253.4L465.4 253.4ZM473.8 259.9L473.8 259.9L473.8 270L469.0 270L469.0 246.7L473.7 246.7L473.7 255.6L473.9 255.6Q474.5 254.1 475.8 253.2Q477.1 252.3 479.1 252.3L479.1 252.3Q480.9 252.3 482.3 253.1Q483.6 253.9 484.4 255.4Q485.1 256.8 485.1 258.9L485.1 258.9L485.1 270L480.3 270L480.3 259.8Q480.3 258.1 479.5 257.2Q478.6 256.3 477.2 256.3L477.2 256.3Q476.2 256.3 475.4 256.8Q474.7 257.2 474.2 258.0Q473.8 258.8 473.8 259.9ZM493.9 270.3L493.9 270.3Q492.3 270.3 490.9 269.7Q489.6 269.2 488.9 268.0Q488.1 266.9 488.1 265.1L488.1 265.1Q488.1 263.7 488.7 262.7Q489.2 261.7 490.1 261.1Q491.0 260.5 492.2 260.2Q493.4 259.9 494.7 259.8L494.7 259.8Q496.2 259.6 497.1 259.4Q498.1 259.3 498.5 259.0Q498.9 258.7 498.9 258.2L498.9 258.2L498.9 258.1Q498.9 257.0 498.2 256.4Q497.6 255.9 496.3 255.9L496.3 255.9Q495.0 255.9 494.2 256.4Q493.5 257 493.2 257.9L493.2 257.9L488.7 257.5Q489.1 255.9 490.1 254.7Q491.1 253.6 492.7 252.9Q494.3 252.3 496.3 252.3L496.3 252.3Q497.8 252.3 499.1 252.7Q500.5 253 501.5 253.7Q502.5 254.4 503.1 255.6Q503.8 256.7 503.8 258.2L503.8 258.2L503.8 270L499.2 270L499.2 267.6L499.0 267.6Q498.6 268.4 497.9 269.0Q497.2 269.6 496.2 270.0Q495.2 270.3 493.9 270.3ZM495.3 267.0L495.3 267.0Q496.4 267.0 497.2 266.6Q498.0 266.1 498.5 265.4Q498.9 264.7 498.9 263.8L498.9 263.8L498.9 261.9Q498.7 262.1 498.3 262.2Q497.9 262.3 497.4 262.4Q497.0 262.5 496.5 262.6Q496.0 262.6 495.6 262.7L495.6 262.7Q494.7 262.8 494.1 263.1Q493.5 263.4 493.1 263.8Q492.8 264.3 492.8 265.0L492.8 265.0Q492.8 266.0 493.5 266.5Q494.2 267.0 495.3 267.0ZM512.4 270L507.5 270L507.5 252.5L512.2 252.5L512.2 255.6L512.4 255.6Q512.9 254.0 514.0 253.1Q515.1 252.3 516.6 252.3L516.6 252.3Q516.9 252.3 517.4 252.3Q517.8 252.4 518.1 252.5L518.1 252.5L518.1 256.8Q517.8 256.7 517.2 256.6Q516.6 256.5 516.1 256.5L516.1 256.5Q515.0 256.5 514.2 257.0Q513.3 257.4 512.8 258.2Q512.4 259.1 512.4 260.1L512.4 260.1L512.4 270ZM527.7 270.3L527.7 270.3Q525.0 270.3 523.1 269.2Q521.2 268.1 520.1 266.1Q519.1 264.1 519.1 261.4L519.1 261.4Q519.1 258.7 520.1 256.6Q521.2 254.6 523.1 253.5Q525.0 252.3 527.5 252.3L527.5 252.3Q529.3 252.3 530.8 252.9Q532.3 253.4 533.4 254.5Q534.5 255.6 535.1 257.3Q535.7 259.0 535.7 261.2L535.7 261.2L535.7 262.5L521 262.5L521 259.5L531.2 259.5Q531.2 258.5 530.7 257.7Q530.3 256.9 529.5 256.4Q528.7 255.9 527.6 255.9L527.6 255.9Q526.5 255.9 525.7 256.4Q524.8 256.9 524.3 257.8Q523.9 258.6 523.9 259.7L523.9 259.7L523.9 262.5Q523.9 263.8 524.3 264.8Q524.8 265.7 525.7 266.2Q526.6 266.7 527.8 266.7L527.8 266.7Q528.6 266.7 529.3 266.5Q530.0 266.3 530.4 265.8Q530.9 265.4 531.2 264.7L531.2 264.7L535.6 265Q535.3 266.6 534.2 267.8Q533.2 269.0 531.5 269.7Q529.9 270.3 527.7 270.3Z M555.7 270L550.6 270L545.8 252.5L550.7 252.5L553.4 264.3L553.6 264.3L556.4 252.5L561.2 252.5L564.1 264.2L564.2 264.2L566.9 252.5L571.8 252.5L567.0 270L561.9 270L558.9 259.0L558.7 259.0L555.7 270ZM581.8 270.3L581.8 270.3Q579.1 270.3 577.2 269.2Q575.3 268.1 574.3 266.1Q573.2 264.0 573.2 261.3L573.2 261.3Q573.2 258.6 574.3 256.6Q575.3 254.6 577.2 253.4Q579.1 252.3 581.8 252.3L581.8 252.3Q584.4 252.3 586.4 253.4Q588.3 254.6 589.3 256.6Q590.4 258.6 590.4 261.3L590.4 261.3Q590.4 264.0 589.3 266.1Q588.3 268.1 586.4 269.2Q584.4 270.3 581.8 270.3ZM581.8 266.6L581.8 266.6Q583.0 266.6 583.8 265.9Q584.6 265.2 585.1 264.0Q585.5 262.8 585.5 261.3L585.5 261.3Q585.5 259.8 585.1 258.6Q584.6 257.4 583.8 256.7Q583.0 256.0 581.8 256.0L581.8 256.0Q580.6 256.0 579.8 256.7Q579.0 257.4 578.5 258.6Q578.1 259.8 578.1 261.3L578.1 261.3Q578.1 262.8 578.5 264.0Q579.0 265.2 579.8 265.9Q580.6 266.6 581.8 266.6ZM598.4 270L593.5 270L593.5 252.5L598.2 252.5L598.2 255.6L598.4 255.6Q598.9 254.0 600.0 253.1Q601.1 252.3 602.6 252.3L602.6 252.3Q603.0 252.3 603.4 252.3Q603.8 252.4 604.1 252.5L604.1 252.5L604.1 256.8Q603.8 256.7 603.2 256.6Q602.6 256.5 602.1 256.5L602.1 256.5Q601.0 256.5 600.2 257.0Q599.4 257.4 598.9 258.2Q598.4 259.1 598.4 260.1L598.4 260.1L598.4 270ZM612.2 270.3L612.2 270.3Q610.3 270.3 608.6 269.3Q607.0 268.2 606.1 266.2Q605.2 264.2 605.2 261.3L605.2 261.3Q605.2 258.3 606.1 256.3Q607.1 254.3 608.7 253.3Q610.3 252.3 612.2 252.3L612.2 252.3Q613.7 252.3 614.7 252.8Q615.7 253.3 616.3 254.0Q616.9 254.8 617.2 255.5L617.2 255.5L617.3 255.5L617.3 246.7L622.2 246.7L622.2 270L617.4 270L617.4 267.2L617.2 267.2Q616.9 267.9 616.2 268.6Q615.6 269.4 614.6 269.8Q613.6 270.3 612.2 270.3ZM613.8 266.4L613.8 266.4Q614.9 266.4 615.8 265.8Q616.6 265.1 617.0 264.0Q617.4 262.8 617.4 261.3L617.4 261.3Q617.4 259.7 617.0 258.6Q616.6 257.4 615.8 256.8Q614.9 256.2 613.8 256.2L613.8 256.2Q612.6 256.2 611.8 256.8Q610.9 257.5 610.5 258.6Q610.1 259.8 610.1 261.3L610.1 261.3Q610.1 262.8 610.5 264.0Q611.0 265.1 611.8 265.8Q612.6 266.4 613.8 266.4ZM640.7 257.5L640.7 257.5L636.2 257.8Q636.1 257.2 635.7 256.8Q635.4 256.3 634.8 256.0Q634.1 255.8 633.3 255.8L633.3 255.8Q632.2 255.8 631.4 256.2Q630.6 256.7 630.6 257.5L630.6 257.5Q630.6 258.1 631.1 258.5Q631.6 259.0 632.9 259.2L632.9 259.2L636.0 259.9Q638.6 260.4 639.8 261.5Q641.1 262.7 641.1 264.6L641.1 264.6Q641.1 266.3 640.1 267.6Q639.0 268.9 637.3 269.6Q635.6 270.3 633.3 270.3L633.3 270.3Q629.8 270.3 627.8 268.9Q625.7 267.4 625.4 264.9L625.4 264.9L630.1 264.7Q630.3 265.8 631.2 266.3Q632.0 266.9 633.3 266.9L633.3 266.9Q634.6 266.9 635.3 266.4Q636.1 265.9 636.1 265.1L636.1 265.1Q636.1 264.4 635.6 264.0Q635.0 263.6 633.9 263.3L633.9 263.3L630.9 262.7Q628.3 262.2 627.1 261.0Q625.8 259.7 625.8 257.8L625.8 257.8Q625.8 256.1 626.7 254.9Q627.7 253.6 629.3 253.0Q631.0 252.3 633.2 252.3L633.2 252.3Q636.5 252.3 638.4 253.7Q640.3 255.1 640.7 257.5Z "/></svg>